<?xml version="1.0" encoding="utf-8"?>
<!-- Generator: Adobe Illustrator 25.3.1, SVG Export Plug-In . SVG Version: 6.00 Build 0)  -->
<svg version="1.1" id="Livello_1" xmlns="http://www.w3.org/2000/svg" xmlns:xlink="http://www.w3.org/1999/xlink" x="0px" y="0px"
	 viewBox="0 0 534.3 131.3" style="enable-background:new 0 0 534.3 131.3;" xml:space="preserve">
<style type="text/css">
	.st0{fill:#3b3b3b;}
</style>
<path class="st0" d="M102.4,130.5l-1.1-3.4c0-0.1-0.1-0.1-0.1-0.1h-8.1c-0.1,0-0.1,0-0.1,0.1l-1.1,3.4c-0.1,0.1-0.2,0.2-0.3,0.2
	h-1.5c-0.2,0-0.3-0.1-0.2-0.3l6-18.3c0.1-0.1,0.2-0.2,0.3-0.2H98c0.2,0,0.3,0.1,0.3,0.2l6,18.3l0,0.1c0,0.1-0.1,0.2-0.2,0.2h-1.5
	C102.5,130.7,102.4,130.6,102.4,130.5 M93.6,125.4C93.6,125.4,93.6,125.5,93.6,125.4l7.1,0c0,0,0.1,0,0.1,0c0,0,0-0.1,0-0.1l-3.5-11
	c0,0,0-0.1-0.1-0.1c0,0-0.1,0-0.1,0.1L93.6,125.4C93.5,125.4,93.5,125.4,93.6,125.4"/>
<path class="st0" d="M122.3,130.5L119,123c0-0.1-0.1-0.1-0.2-0.1h-2.5c-0.1,0-0.1,0-0.1,0.1v7.4c0,0.1,0,0.2-0.1,0.2
	c-0.1,0.1-0.1,0.1-0.2,0.1h-3.2c-0.1,0-0.2,0-0.2-0.1c-0.1-0.1-0.1-0.1-0.1-0.2v-18.2c0-0.1,0-0.2,0.1-0.2c0.1-0.1,0.1-0.1,0.2-0.1
	h7.7c1.2,0,2.2,0.2,3,0.7c0.9,0.5,1.5,1.1,2,2c0.5,0.9,0.7,1.9,0.7,3c0,1.2-0.3,2.3-0.9,3.1c-0.6,0.9-1.5,1.5-2.6,1.8
	c-0.1,0-0.1,0.1-0.1,0.2l3.7,7.6c0,0.1,0.1,0.1,0.1,0.2c0,0.1-0.1,0.2-0.3,0.2h-3.3C122.5,130.7,122.4,130.6,122.3,130.5
	 M116.2,115.2v4.6c0,0.1,0,0.1,0.1,0.1h3.5c0.8,0,1.4-0.2,1.8-0.7c0.5-0.4,0.7-1,0.7-1.8c0-0.7-0.2-1.3-0.7-1.8
	c-0.5-0.5-1.1-0.7-1.8-0.7h-3.5C116.2,115.1,116.2,115.2,116.2,115.2"/>
<path class="st0" d="M131.9,130.1c-1.1-0.6-1.9-1.4-2.5-2.4c-0.6-1-0.9-2.2-0.9-3.6v-5.8c0-1.3,0.3-2.5,0.9-3.5
	c0.6-1,1.4-1.8,2.5-2.4c1.1-0.6,2.3-0.8,3.7-0.8c1.4,0,2.7,0.3,3.7,0.8c1.1,0.6,1.9,1.4,2.5,2.4c0.6,1,0.9,2.2,0.9,3.5v5.8
	c0,1.3-0.3,2.5-0.9,3.6c-0.6,1-1.4,1.8-2.5,2.4c-1.1,0.6-2.3,0.9-3.7,0.9C134.2,131,133,130.7,131.9,130.1 M138,126.8
	c0.6-0.6,0.9-1.5,0.9-2.5v-5.9c0-1-0.3-1.9-0.9-2.5c-0.6-0.6-1.4-1-2.4-1c-1,0-1.8,0.3-2.4,1c-0.6,0.6-0.9,1.5-0.9,2.5v5.9
	c0,1,0.3,1.9,0.9,2.5c0.6,0.6,1.4,0.9,2.4,0.9C136.6,127.7,137.4,127.4,138,126.8"/>
<path class="st0" d="M148.6,130.1c-1.1-0.5-1.9-1.3-2.5-2.3c-0.6-1-0.9-2.1-0.9-3.4v-6.2c0-1.3,0.3-2.4,0.9-3.4s1.4-1.8,2.5-2.3
	c1.1-0.5,2.3-0.8,3.7-0.8c1.4,0,2.6,0.3,3.7,0.8c1.1,0.5,1.9,1.2,2.5,2.2c0.6,0.9,0.9,2,0.9,3.3c0,0.2-0.1,0.3-0.3,0.3l-3.2,0.2
	h-0.1c-0.2,0-0.3-0.1-0.3-0.3c0-1-0.3-1.7-0.9-2.3c-0.6-0.6-1.4-0.9-2.3-0.9c-1,0-1.7,0.3-2.3,0.9c-0.6,0.6-0.9,1.3-0.9,2.3v6.5
	c0,0.9,0.3,1.7,0.9,2.3c0.6,0.6,1.4,0.9,2.3,0.9c1,0,1.7-0.3,2.3-0.9c0.6-0.6,0.9-1.3,0.9-2.3c0-0.2,0.1-0.3,0.3-0.3l3.2,0.1
	c0.1,0,0.2,0,0.2,0.1c0.1,0.1,0.1,0.1,0.1,0.2c0,1.2-0.3,2.3-0.9,3.3c-0.6,1-1.4,1.7-2.5,2.2c-1.1,0.5-2.3,0.8-3.7,0.8
	C150.9,130.9,149.7,130.6,148.6,130.1"/>
<path class="st0" d="M162.2,130.6c-0.1-0.1-0.1-0.1-0.1-0.2v-18.2c0-0.1,0-0.2,0.1-0.2c0.1-0.1,0.1-0.1,0.2-0.1h3.2
	c0.1,0,0.2,0,0.2,0.1c0.1,0.1,0.1,0.1,0.1,0.2v7.5c0,0.1,0,0.1,0.1,0.1c0,0,0.1,0,0.1,0l6.2-7.7c0.1-0.1,0.2-0.2,0.4-0.2h3.6
	c0.1,0,0.2,0,0.3,0.1c0,0.1,0,0.2-0.1,0.3l-6,7.7c-0.1,0.1-0.1,0.1,0,0.2l6.4,10.2c0,0.1,0.1,0.2,0.1,0.2c0,0.1-0.1,0.2-0.3,0.2H173
	c-0.2,0-0.3-0.1-0.4-0.2l-4.8-7.8c0,0,0-0.1-0.1-0.1c0,0-0.1,0-0.1,0.1l-1.7,2.1c0,0.1-0.1,0.1-0.1,0.2v5.4c0,0.1,0,0.2-0.1,0.2
	c-0.1,0.1-0.1,0.1-0.2,0.1h-3.2C162.3,130.7,162.2,130.7,162.2,130.6"/>
<path class="st0" d="M182.8,130.4l-4.8-18.2l0-0.1c0-0.2,0.1-0.2,0.3-0.2h3.3c0.2,0,0.3,0.1,0.4,0.3l2.6,11c0,0.1,0,0.1,0.1,0.1
	c0,0,0.1,0,0.1-0.1l2.5-10.9c0.1-0.2,0.2-0.3,0.3-0.3h3.3c0.2,0,0.3,0.1,0.4,0.3l2.7,11c0,0.1,0,0.1,0.1,0.1c0,0,0.1,0,0.1-0.1
	l2.5-10.9c0.1-0.2,0.2-0.3,0.4-0.3h3.2c0.3,0,0.3,0.1,0.3,0.4l-4.4,18.2c-0.1,0.2-0.2,0.3-0.4,0.3h-3.2c-0.2,0-0.3-0.1-0.4-0.3
	l-2.8-11.7c0-0.1,0-0.1-0.1-0.1c0,0-0.1,0-0.1,0.1l-2.6,11.6c0,0.2-0.2,0.3-0.4,0.3h-3C182.9,130.7,182.8,130.6,182.8,130.4"/>
<path class="st0" d="M215.5,115c-0.1,0.1-0.1,0.1-0.2,0.1h-8.8c-0.1,0-0.1,0-0.1,0.1v4.2c0,0.1,0,0.1,0.1,0.1h5.8
	c0.1,0,0.2,0,0.2,0.1c0.1,0.1,0.1,0.1,0.1,0.2v2.6c0,0.1,0,0.2-0.1,0.2c-0.1,0.1-0.1,0.1-0.2,0.1h-5.8c-0.1,0-0.1,0-0.1,0.1v4.4
	c0,0.1,0,0.1,0.1,0.1h8.8c0.1,0,0.2,0,0.2,0.1c0.1,0.1,0.1,0.1,0.1,0.2v2.6c0,0.1,0,0.2-0.1,0.2s-0.1,0.1-0.2,0.1h-12.5
	c-0.1,0-0.2,0-0.2-0.1c-0.1-0.1-0.1-0.1-0.1-0.2v-18.2c0-0.1,0-0.2,0.1-0.2c0.1-0.1,0.1-0.1,0.2-0.1h12.5c0.1,0,0.2,0,0.2,0.1
	c0.1,0.1,0.1,0.1,0.1,0.2v2.6C215.6,114.9,215.5,115,215.5,115"/>
<path class="st0" d="M218.3,130.6c-0.1-0.1-0.1-0.1-0.1-0.2v-18.2c0-0.1,0-0.2,0.1-0.2c0.1-0.1,0.1-0.1,0.2-0.1h3.2
	c0.1,0,0.2,0,0.2,0.1c0.1,0.1,0.1,0.1,0.1,0.2v15.1c0,0.1,0,0.1,0.1,0.1h8.8c0.1,0,0.2,0,0.2,0.1c0.1,0.1,0.1,0.1,0.1,0.2v2.6
	c0,0.1,0,0.2-0.1,0.2c-0.1,0.1-0.1,0.1-0.2,0.1h-12.4C218.4,130.7,218.4,130.7,218.3,130.6"/>
<path class="st0" d="M233.7,130.6c-0.1-0.1-0.1-0.1-0.1-0.2v-18.2c0-0.1,0-0.2,0.1-0.2c0.1-0.1,0.1-0.1,0.2-0.1h3.2
	c0.1,0,0.2,0,0.2,0.1c0.1,0.1,0.1,0.1,0.1,0.2v15.1c0,0.1,0,0.1,0.1,0.1h8.8c0.1,0,0.2,0,0.2,0.1c0.1,0.1,0.1,0.1,0.1,0.2v2.6
	c0,0.1,0,0.2-0.1,0.2c-0.1,0.1-0.1,0.1-0.2,0.1H234C233.9,130.7,233.8,130.7,233.7,130.6"/>
<path class="st0" d="M266.1,130.4l-0.8-2.6c0-0.1-0.1-0.1-0.1-0.1h-6.6c-0.1,0-0.1,0-0.1,0.1l-0.8,2.6c-0.1,0.2-0.2,0.3-0.4,0.3
	h-3.4c-0.1,0-0.2,0-0.2-0.1c-0.1-0.1-0.1-0.2,0-0.3l5.8-18.2c0.1-0.2,0.2-0.3,0.4-0.3h4.2c0.2,0,0.3,0.1,0.4,0.3l5.8,18.2
	c0,0,0,0.1,0,0.1c0,0.2-0.1,0.2-0.3,0.2h-3.4C266.3,130.7,266.2,130.6,266.1,130.4 M259.5,124.7h4.7c0.1,0,0.1-0.1,0.1-0.2l-2.4-8
	c0-0.1,0-0.1-0.1-0.1c0,0-0.1,0-0.1,0.1l-2.4,8C259.4,124.7,259.4,124.7,259.5,124.7"/>
<path class="st0" d="M275.4,130.1c-1.1-0.5-1.9-1.3-2.5-2.3c-0.6-1-0.9-2.1-0.9-3.4v-12.3c0-0.1,0-0.2,0.1-0.2
	c0.1-0.1,0.1-0.1,0.2-0.1h3.2c0.1,0,0.2,0,0.2,0.1c0.1,0.1,0.1,0.1,0.1,0.2v12.3c0,1,0.3,1.7,0.9,2.3c0.6,0.6,1.4,0.9,2.3,0.9
	c1,0,1.7-0.3,2.3-0.9s0.9-1.3,0.9-2.3v-12.3c0-0.1,0-0.2,0.1-0.2c0.1-0.1,0.1-0.1,0.2-0.1h3.2c0.1,0,0.2,0,0.2,0.1
	c0.1,0.1,0.1,0.1,0.1,0.2v12.3c0,1.3-0.3,2.4-0.9,3.4c-0.6,1-1.4,1.7-2.5,2.3c-1.1,0.5-2.3,0.8-3.7,0.8
	C277.7,130.9,276.4,130.6,275.4,130.1"/>
<path class="st0" d="M302.4,111.9c0.1,0.1,0.1,0.1,0.1,0.2v2.6c0,0.1,0,0.2-0.1,0.2c-0.1,0.1-0.1,0.1-0.2,0.1h-4.8
	c-0.1,0-0.1,0-0.1,0.1v15.1c0,0.1,0,0.2-0.1,0.2c-0.1,0.1-0.1,0.1-0.2,0.1h-3.2c-0.1,0-0.2,0-0.2-0.1c-0.1-0.1-0.1-0.1-0.1-0.2
	v-15.1c0-0.1,0-0.1-0.1-0.1h-4.7c-0.1,0-0.2,0-0.2-0.1c-0.1-0.1-0.1-0.1-0.1-0.2v-2.6c0-0.1,0-0.2,0.1-0.2c0.1-0.1,0.1-0.1,0.2-0.1
	h13.6C302.3,111.8,302.4,111.9,302.4,111.9"/>
<path class="st0" d="M307.2,130.1c-1.1-0.6-1.9-1.4-2.5-2.4c-0.6-1-0.9-2.2-0.9-3.6v-5.8c0-1.3,0.3-2.5,0.9-3.5
	c0.6-1,1.4-1.8,2.5-2.4c1.1-0.6,2.3-0.8,3.7-0.8c1.4,0,2.7,0.3,3.7,0.8c1.1,0.6,1.9,1.4,2.5,2.4c0.6,1,0.9,2.2,0.9,3.5v5.8
	c0,1.3-0.3,2.5-0.9,3.6c-0.6,1-1.4,1.8-2.5,2.4c-1.1,0.6-2.3,0.9-3.7,0.9C309.5,131,308.3,130.7,307.2,130.1 M313.3,126.8
	c0.6-0.6,0.9-1.5,0.9-2.5v-5.9c0-1-0.3-1.9-0.9-2.5c-0.6-0.6-1.4-1-2.4-1c-1,0-1.8,0.3-2.4,1c-0.6,0.6-0.9,1.5-0.9,2.5v5.9
	c0,1,0.3,1.9,0.9,2.5c0.6,0.6,1.4,0.9,2.4,0.9C311.9,127.7,312.7,127.4,313.3,126.8"/>
<path class="st0" d="M333.4,111.8h3.2c0.1,0,0.2,0,0.2,0.1c0.1,0.1,0.1,0.1,0.1,0.2v18.2c0,0.1,0,0.2-0.1,0.2
	c-0.1,0.1-0.1,0.1-0.2,0.1h-3.2c-0.1,0-0.2,0-0.2-0.1c-0.1-0.1-0.1-0.1-0.1-0.2v-11.9c0-0.1,0-0.1-0.1-0.1c0,0-0.1,0-0.1,0.1
	l-2.9,4.5c-0.1,0.1-0.2,0.2-0.4,0.2h-1.6c-0.2,0-0.3-0.1-0.4-0.2l-2.9-4.5c0-0.1-0.1-0.1-0.1-0.1c0,0-0.1,0-0.1,0.1v11.9
	c0,0.1,0,0.2-0.1,0.2s-0.1,0.1-0.2,0.1h-3.2c-0.1,0-0.2,0-0.2-0.1c-0.1-0.1-0.1-0.1-0.1-0.2v-18.2c0-0.1,0-0.2,0.1-0.2
	c0.1-0.1,0.1-0.1,0.2-0.1h3.2c0.2,0,0.3,0.1,0.4,0.2l4,6.3c0.1,0.1,0.1,0.1,0.2,0l4.1-6.3C333.2,111.9,333.3,111.8,333.4,111.8"/>
<path class="st0" d="M351.9,130.4l-0.8-2.6c0-0.1-0.1-0.1-0.1-0.1h-6.6c-0.1,0-0.1,0-0.1,0.1l-0.8,2.6c-0.1,0.2-0.2,0.3-0.4,0.3
	h-3.4c-0.1,0-0.2,0-0.2-0.1c-0.1-0.1-0.1-0.2,0-0.3l5.8-18.2c0.1-0.2,0.2-0.3,0.4-0.3h4.2c0.2,0,0.3,0.1,0.3,0.3l5.8,18.2
	c0,0,0,0.1,0,0.1c0,0.2-0.1,0.2-0.3,0.2h-3.4C352,130.7,351.9,130.6,351.9,130.4 M345.2,124.7h4.7c0.1,0,0.1-0.1,0.1-0.2l-2.4-8
	c0-0.1,0-0.1-0.1-0.1c0,0-0.1,0-0.1,0.1l-2.4,8C345.1,124.7,345.1,124.7,345.2,124.7"/>
<path class="st0" d="M369.3,111.9c0.1,0.1,0.1,0.1,0.1,0.2v2.6c0,0.1,0,0.2-0.1,0.2c-0.1,0.1-0.1,0.1-0.2,0.1h-4.8
	c-0.1,0-0.1,0-0.1,0.1v15.1c0,0.1,0,0.2-0.1,0.2c-0.1,0.1-0.1,0.1-0.2,0.1h-3.2c-0.1,0-0.2,0-0.2-0.1c-0.1-0.1-0.1-0.1-0.1-0.2
	v-15.1c0-0.1,0-0.1-0.1-0.1h-4.7c-0.1,0-0.2,0-0.2-0.1c-0.1-0.1-0.1-0.1-0.1-0.2v-2.6c0-0.1,0-0.2,0.1-0.2c0.1-0.1,0.1-0.1,0.2-0.1
	H369C369.1,111.8,369.2,111.9,369.3,111.9"/>
<path class="st0" d="M371.9,130.6c-0.1-0.1-0.1-0.1-0.1-0.2v-18.2c0-0.1,0-0.2,0.1-0.2c0.1-0.1,0.1-0.1,0.2-0.1h3.2
	c0.1,0,0.2,0,0.2,0.1c0.1,0.1,0.1,0.1,0.1,0.2v18.2c0,0.1,0,0.2-0.1,0.2c-0.1,0.1-0.1,0.1-0.2,0.1h-3.2
	C372,130.7,371.9,130.7,371.9,130.6"/>
<path class="st0" d="M381.9,130.1c-1.1-0.6-1.9-1.4-2.5-2.4c-0.6-1-0.9-2.2-0.9-3.6v-5.8c0-1.3,0.3-2.5,0.9-3.5
	c0.6-1,1.4-1.8,2.5-2.4c1.1-0.6,2.3-0.8,3.7-0.8c1.4,0,2.7,0.3,3.7,0.8c1.1,0.6,1.9,1.4,2.5,2.4c0.6,1,0.9,2.2,0.9,3.5v5.8
	c0,1.3-0.3,2.5-0.9,3.6c-0.6,1-1.4,1.8-2.5,2.4c-1.1,0.6-2.3,0.9-3.7,0.9C384.2,131,383,130.7,381.9,130.1 M388,126.8
	c0.6-0.6,0.9-1.5,0.9-2.5v-5.9c0-1-0.3-1.9-0.9-2.5c-0.6-0.6-1.4-1-2.4-1c-1,0-1.8,0.3-2.4,1c-0.6,0.6-0.9,1.5-0.9,2.5v5.9
	c0,1,0.3,1.9,0.9,2.5c0.6,0.6,1.4,0.9,2.4,0.9C386.6,127.7,387.4,127.4,388,126.8"/>
<path class="st0" d="M406.6,111.9c0.1-0.1,0.1-0.1,0.2-0.1h3.2c0.1,0,0.2,0,0.2,0.1c0.1,0.1,0.1,0.1,0.1,0.2v18.2
	c0,0.1,0,0.2-0.1,0.2c-0.1,0.1-0.1,0.1-0.2,0.1h-3.1c-0.2,0-0.3-0.1-0.4-0.2l-7-11.5c0-0.1-0.1-0.1-0.1-0.1c0,0-0.1,0-0.1,0.1
	l0.1,11.4c0,0.1,0,0.2-0.1,0.2c-0.1,0.1-0.1,0.1-0.2,0.1h-3.2c-0.1,0-0.2,0-0.2-0.1c-0.1-0.1-0.1-0.1-0.1-0.2v-18.2
	c0-0.1,0-0.2,0.1-0.2c0.1-0.1,0.1-0.1,0.2-0.1h3.1c0.2,0,0.3,0.1,0.4,0.2l7,11.5c0,0.1,0.1,0.1,0.1,0.1c0,0,0.1,0,0.1-0.1l0-11.3
	C406.5,112.1,406.5,112,406.6,111.9"/>
<path class="st0" d="M422.3,130.2c-1-0.5-1.7-1.2-2.2-2.1c-0.5-0.9-0.8-2-0.8-3.1v-7.4c0-1.2,0.3-2.2,0.8-3.1
	c0.5-0.9,1.3-1.6,2.2-2.1c1-0.5,2.1-0.7,3.3-0.7c1.3,0,2.4,0.2,3.3,0.7c1,0.5,1.7,1.2,2.2,2c0.5,0.9,0.8,1.9,0.8,3
	c0,0.1,0,0.2-0.1,0.2c-0.1,0.1-0.1,0.1-0.2,0.1l-1.4,0.1c-0.2,0-0.3-0.1-0.3-0.2v-0.1c0-1.3-0.4-2.3-1.2-3.1
	c-0.8-0.8-1.9-1.1-3.2-1.1c-1.3,0-2.4,0.4-3.2,1.2c-0.8,0.8-1.2,1.8-1.2,3v7.5c0,1.3,0.4,2.3,1.2,3c0.8,0.8,1.9,1.2,3.2,1.2
	c1.3,0,2.4-0.4,3.2-1.1c0.8-0.8,1.2-1.8,1.2-3.1V125c0-0.2,0.1-0.2,0.3-0.2l1.4,0.1c0.2,0,0.3,0.1,0.3,0.2c0,1.2-0.3,2.2-0.8,3.1
	c-0.5,0.9-1.3,1.6-2.2,2.1c-1,0.5-2.1,0.7-3.3,0.7C424.3,130.9,423.2,130.7,422.3,130.2"/>
<path class="st0" d="M438.7,130.1c-1-0.5-1.7-1.3-2.3-2.2c-0.5-0.9-0.8-2-0.8-3.3v-6.8c0-1.2,0.3-2.3,0.8-3.3
	c0.5-0.9,1.3-1.7,2.3-2.2c1-0.5,2.1-0.8,3.4-0.8c1.3,0,2.4,0.3,3.4,0.8c1,0.5,1.7,1.3,2.3,2.2c0.5,0.9,0.8,2,0.8,3.3v6.8
	c0,1.2-0.3,2.3-0.8,3.3c-0.5,0.9-1.3,1.7-2.3,2.2c-1,0.5-2.1,0.8-3.4,0.8C440.8,130.9,439.7,130.7,438.7,130.1 M445.3,128
	c0.8-0.8,1.2-1.9,1.2-3.3v-6.9c0-1.4-0.4-2.5-1.2-3.3c-0.8-0.8-1.9-1.3-3.3-1.3c-1.3,0-2.4,0.4-3.3,1.3c-0.8,0.8-1.2,1.9-1.2,3.3
	v6.9c0,1.4,0.4,2.5,1.2,3.3c0.8,0.8,1.9,1.2,3.3,1.2C443.4,129.3,444.5,128.9,445.3,128"/>
<path class="st0" d="M465.6,111.8h1.4c0.2,0,0.3,0.1,0.3,0.3v18.3c0,0.2-0.1,0.3-0.3,0.3h-1.4c-0.2,0-0.3-0.1-0.3-0.3v-15
	c0-0.1,0-0.1-0.1-0.1c0,0-0.1,0-0.1,0.1l-4.4,6.7c-0.1,0.1-0.2,0.2-0.3,0.2h-0.7c-0.1,0-0.2-0.1-0.3-0.2l-4.4-6.7
	c0-0.1,0-0.1-0.1-0.1c0,0-0.1,0.1-0.1,0.1v14.9c0,0.2-0.1,0.3-0.3,0.3h-1.4c-0.2,0-0.3-0.1-0.3-0.3v-18.3c0-0.2,0.1-0.3,0.3-0.3h1.4
	c0.1,0,0.3,0.1,0.3,0.2l5.1,7.7c0,0,0,0,0.1,0c0,0,0.1,0,0.1,0l5-7.6C465.3,111.9,465.4,111.8,465.6,111.8"/>
<path class="st0" d="M483.3,113.3c1,1,1.4,2.2,1.4,3.8c0,1.6-0.5,2.8-1.5,3.8c-1,1-2.3,1.4-3.9,1.4h-5.3c-0.1,0-0.1,0-0.1,0.1v8
	c0,0.2-0.1,0.3-0.3,0.3h-1.4c-0.2,0-0.3-0.1-0.3-0.3v-18.3c0-0.2,0.1-0.3,0.3-0.3h7.1C481,111.8,482.3,112.3,483.3,113.3
	 M481.8,119.7c0.7-0.7,1-1.5,1-2.6c0-1.1-0.3-2-1-2.6c-0.7-0.7-1.5-1-2.6-1h-5.1c-0.1,0-0.1,0-0.1,0.1v7c0,0.1,0,0.1,0.1,0.1h5.1
	C480.3,120.7,481.2,120.4,481.8,119.7"/>
<path class="st0" d="M498.5,130.5l-1.1-3.4c0-0.1-0.1-0.1-0.1-0.1h-8.1c-0.1,0-0.1,0-0.1,0.1l-1.1,3.4c-0.1,0.1-0.2,0.2-0.3,0.2
	h-1.5c-0.2,0-0.3-0.1-0.2-0.3l6-18.3c0.1-0.1,0.2-0.2,0.3-0.2h1.8c0.2,0,0.3,0.1,0.3,0.2l6,18.3l0,0.1c0,0.1-0.1,0.2-0.2,0.2h-1.5
	C498.7,130.7,498.6,130.6,498.5,130.5 M489.7,125.4C489.7,125.4,489.8,125.5,489.7,125.4l7.1,0c0,0,0.1,0,0.1,0c0,0,0-0.1,0-0.1
	l-3.5-11c0,0,0-0.1-0.1-0.1c0,0-0.1,0-0.1,0.1L489.7,125.4C489.7,125.4,489.7,125.4,489.7,125.4"/>
<path class="st0" d="M515.5,111.8h1.4c0.2,0,0.3,0.1,0.3,0.3v18.3c0,0.2-0.1,0.3-0.3,0.3h-1.3c-0.1,0-0.2-0.1-0.3-0.2l-9.2-14.9
	c0-0.1,0-0.1-0.1-0.1c0,0-0.1,0-0.1,0.1l0,14.8c0,0.2-0.1,0.3-0.3,0.3h-1.4c-0.2,0-0.3-0.1-0.3-0.3v-18.3c0-0.2,0.1-0.3,0.3-0.3h1.3
	c0.1,0,0.2,0.1,0.3,0.2l9.2,14.9c0,0.1,0,0.1,0.1,0.1c0,0,0.1,0,0.1-0.1l0-14.8C515.3,111.9,515.3,111.8,515.5,111.8"/>
<path class="st0" d="M526.4,130.4v-8c0-0.1,0-0.1,0-0.1l-5.6-10.1c0-0.1-0.1-0.1-0.1-0.2c0-0.1,0.1-0.2,0.2-0.2h1.5
	c0.2,0,0.3,0.1,0.3,0.2l4.5,8.2c0,0,0,0,0.1,0s0.1,0,0.1,0l4.6-8.2c0.1-0.1,0.2-0.2,0.3-0.2h1.5c0.1,0,0.2,0,0.2,0.1
	c0,0.1,0,0.1,0,0.2l-5.6,10.1c0,0,0,0.1,0,0.1v8c0,0.2-0.1,0.3-0.3,0.3h-1.4C526.5,130.7,526.4,130.6,526.4,130.4"/>
<g>
	<path class="st0" d="M32.8,51.2c-4.5,0.7-6.7,2.3-8.1,4.1c-1.5,1.9-1.9,7.8,2.1,9.4c2.1,0.9,7.1,1.5,10.9-1.6c1.5-1.2,5-3.3,4.2-12
		C41.9,50.7,37.7,50.5,32.8,51.2z"/>
	<path class="st0" d="M66.7,41.3c0.9-0.8,4.3-6.7-1.3-9.2c-2.1-0.9-7.1-1.5-11,1.6c-1.4,1.2-4.2,5.1-4.3,10.3c0,0,4,0.1,8.3,0.1
		C62,44.1,64.9,42.9,66.7,41.3z"/>
	<path class="st0" d="M425.5,27.9c-9.4,0-17.3,6.9-18.8,17.1h-12.8c-2.2-17.2-4.2-33.5-4.6-35.1c-0.9-4.7-2.6-10.1-9.2-9.9h-25.8
		c-3.5,0.2-4.8,2.6-7.3,6.3c-0.4,0.6-0.7,0.9-1.4,0c-1.5-2.1-3.4-6.1-7.3-6.3h-25.8c-6.7-0.2-8.3,5.2-9.2,9.9
		c-0.3,1.6-2.4,17.8-4.6,35.1h-7.9V33.1c0-0.9-0.7-1.6-1.6-1.6h-25.2c-0.9,0-1.6-0.7-1.6-1.6v-9.8c0-0.9,0.7-1.6,1.6-1.6h25.2
		c0.9,0,1.6-0.7,1.6-1.6V1.4c0-0.9-0.7-1.3-1.6-1.3h-43.2c-6,0.3-7.6,3.5-7.6,5.2c-0.1,4-0.1,22.2,0,39.7H236
		c0.2-7.4-5.2-12.3-10.7-13.3c-7.3-1.3-11.6-0.1-22.8-0.6c-3.3-0.2-3.7-1.2-3.6-2.8c0.1-2.3,1.2-4.7,1.9-6.6
		c0.9-2.5,2.3-3.2,4.1-3.2h24.3c0.9,0,1.6-0.9,1.6-1.8V1.8c0-0.9-0.7-1.7-1.6-1.7c0,0-30.3-0.2-35.3,0c-6.6,0.3-10.2,3.3-12.1,6.7
		c-1.7,3.2-7.9,23.7-8.2,26.5c-0.3,2.8-0.7,5.7,0.2,8.2c0.4,1.1,1.2,2.3,2.3,3.5h-7.7l-1.2-42.7c0-1.2-0.3-2.2-2-2.3h-33.5
		c-2.8,0.3-7.9,1.8-11.1,7.2c-1.4,2.5-7.7,19.8-14,37.8H91.4C89.8,20.4,69.1,1.9,45.2,1.9C20.2,1.9,0,22.1,0,47
		c0,25,20.2,45.2,45.2,45.2c23.9,0,44.5-18.4,46.2-41.8h13.3c-6.7,19.3-13,37.7-13,37.7c-0.3,0.8,0.2,1.5,1.1,1.5h22.2
		c0.9,0,1.8-0.7,2.1-1.5l7.9-23.7c0.3-0.8,1.2-1.5,2.1-1.5h17.6c0.9,0,1.6,0.7,1.6,1.6l0.6,23.5c0,0.9,0.7,1.6,1.6,1.6H168
		c0.9,0,1.6-0.7,1.5-1.6l-1.1-37.6h24.4c7.4,0.2,14.7,0.1,14.7,0.1c0.9,0,2.4,1,1.6,4.4c0,0-1,4.4-2.9,9.2c-2.3,6-4.2,6-12.7,6.3
		h-19.3c-0.8,0-1.6,0.7-1.6,1.6V88c0,0.9,0.7,1.6,1.6,1.6c0,0,35-0.1,38.7,0c4.9,0.2,10.7-3.4,12.8-9.7c1.5-4.6,7.2-22,9.3-29.5h3.4
		c0,15.5,0.1,29.3,0,30.2c-0.3,4.4,1.3,8.8,6.7,8.9c7.5,0.2,44.1,0,44.1,0c0.9,0,1.6-0.7,1.6-1.6V72.7c0-0.9-0.7-1.6-1.6-1.6h-25.2
		c-0.9,0-1.6-0.7-1.6-1.6V52.3c0-0.9,0.7-1.6,1.6-1.6h25.2c0.4,0,0.7-0.1,1-0.4h7.8c-2.4,19-4.7,37.6-4.7,37.6
		c-0.1,0.9,0.5,1.5,1.4,1.5h21.5c0.9,0,1.6-0.7,1.8-1.5c0,0,3.2-26.1,4.6-37.6h12.8v20.3c0,0.9,0.9,1.6,1.8,1.6h18.1
		c0.9,0,1.8-0.7,1.8-1.6V50.4h12.8c1.3,11.5,4.6,37.6,4.6,37.6c0.1,0.9,0.9,1.5,1.8,1.5h21.5c0.9,0,1.5-0.7,1.4-1.5
		c0,0-2.3-18.6-4.7-37.6h12.1c1.6,9,9.4,15.8,18.8,15.8c10.6,0,19.1-8.6,19.1-19.1C444.6,36.5,436,27.9,425.5,27.9z M139.8,20.5
		c1.6-2.8,4.7-2.2,5.1,0c0.3,2.2,0.1,23.5,0.1,23.5h-12.7C132.3,44,138.3,23.4,139.8,20.5z M56.6,64.2c6.2,3.3,13.2,0.7,14.2,0.4
		c1.9-0.6,4.3-1.9,4.3-1.9v5.9c0,0-2.3,4.1-15.2,3.6C51.3,72,46,65.1,46,65.1s-0.2,0.3-1.6,1.5c-1.2,1-4.9,4.5-8.5,5.2
		c-4.5,0.9-18.2,2.4-20.1-10.7c-0.1-1-0.4-4.5,0.7-6.9c1.2-2.4,4.5-8.8,19.4-9.7c2.2-0.1,6.2-0.2,6.2-0.2s0.7-3.2,0-6.1
		c-0.7-2.8-3.4-7.2-8.3-7.3C27.6,30.7,20.6,34,20.6,34v-5.9c0,0,6.5-4.1,13.9-3.9c10.7,0.2,12.3,7.1,12.4,7c2.9-3.2,7.4-5.3,10-5.8
		C67.5,23,74.8,29.1,75.6,34c0.6,3.8,0.2,13.5-9.8,16.1c-6.1,1.6-14.9,0.7-14.9,0.7S48.6,60,56.6,64.2z M323.2,45.1
		c0-1.2,2.1-20.9,2.6-23.3c0.3-1.7,0.9-2.8,4.3-2.8h4.1c1.3,0.1,1.3,1.1,1.3,2v24.1H323.2z M357.1,45.1V21c0-0.9-0.1-1.9,1.3-2h4.1
		c3.4-0.1,3.9,1.1,4.3,2.8c0.5,2.4,2.6,22.1,2.6,23.3H357.1z"/>
</g>
</svg>
