<?xml version="1.0" encoding="utf-8"?>
<!-- Generator: Adobe Illustrator 25.3.1, SVG Export Plug-In . SVG Version: 6.00 Build 0)  -->
<svg version="1.1" id="Livello_1" xmlns="http://www.w3.org/2000/svg" xmlns:xlink="http://www.w3.org/1999/xlink" x="0px" y="0px"
	 viewBox="0 0 386.5 120.9" style="enable-background:new 0 0 386.5 120.9;" xml:space="preserve">
<style type="text/css">
	.st0{fill:#e4e4e4;}
</style>
<g id="UNIQO">
	<g>
		<path class="st0" d="M180,80.4c-3,0-5.7-0.4-8.1-1.3c-2.4-0.9-4.5-2.1-6.2-3.8c-1.7-1.7-3-3.8-4-6.3c-0.9-2.5-1.4-5.4-1.4-8.7
			V33.9h8.1v26c0,4.3,1,7.5,3.1,9.7c2.1,2.2,5,3.3,8.6,3.3c3.6,0,6.5-1.1,8.6-3.2c2.1-2.1,3.1-5.3,3.1-9.6V33.9h8.1v26
			c0,3.4-0.5,6.4-1.4,9c-0.9,2.6-2.3,4.7-4,6.4c-1.7,1.7-3.8,3-6.2,3.9C185.8,80,183,80.4,180,80.4z"/>
		<path class="st0" d="M211,33.9h7.5l24.7,31.7V33.9h8.1v45.8h-6.8L219,47.1v32.6H211V33.9z"/>
		<path class="st0" d="M263.6,33.9h8.1v45.8h-8.1V33.9z"/>
		<path class="st0" d="M362.2,80.5c-3.6,0-6.8-0.6-9.8-1.9c-2.9-1.2-5.5-2.9-7.6-5.1c-2.1-2.1-3.8-4.6-4.9-7.5
			c-1.2-2.9-1.8-5.9-1.8-9.1v-0.1c0-3.2,0.6-6.3,1.8-9.1c1.2-2.9,2.9-5.4,5-7.5c2.2-2.2,4.7-3.9,7.7-5.1c2.9-1.3,6.2-1.9,9.8-1.9
			c3.6,0,6.8,0.6,9.8,1.9c2.9,1.2,5.5,2.9,7.6,5.1c2.1,2.1,3.8,4.6,4.9,7.5c1.2,2.9,1.8,5.9,1.8,9.1v0.1c0,3.2-0.6,6.3-1.8,9.1
			c-1.2,2.9-2.9,5.4-5,7.5c-2.2,2.2-4.7,3.9-7.7,5.1C369,79.8,365.7,80.5,362.2,80.5z M362.3,73.1c2.3,0,4.4-0.4,6.3-1.3
			c1.9-0.9,3.5-2,4.9-3.5c1.4-1.5,2.4-3.2,3.2-5.1c0.8-2,1.2-4.1,1.2-6.3v-0.1c0-2.2-0.4-4.3-1.2-6.3c-0.8-2-1.8-3.7-3.2-5.2
			c-1.4-1.5-3-2.6-5-3.5c-1.9-0.9-4-1.3-6.3-1.3c-2.3,0-4.4,0.4-6.3,1.3c-1.9,0.9-3.5,2-4.9,3.5c-1.4,1.5-2.4,3.2-3.2,5.1
			c-0.8,2-1.2,4.1-1.2,6.3v0.1c0,2.2,0.4,4.3,1.2,6.3c0.8,2,1.8,3.7,3.2,5.2c1.4,1.5,3,2.6,5,3.5C357.9,72.6,360,73.1,362.3,73.1z"
			/>
		<path class="st0" d="M330.8,75.3l-5.2,5.7l-5.5-4.9c-3.9,2.7-8.6,4.3-14,4.3c-14.1,0-24-10.6-24-23.5c0-12.9,10-23.7,24.1-23.7
			c14.1,0,24,10.6,24,23.5c0,5.2-1.7,10.1-4.7,14.1L330.8,75.3z M306.2,64.2l5.2-5.9l8,7.2c1.6-2.4,2.4-5.4,2.4-8.6
			c0-8.9-6.5-16.3-15.7-16.3c-9.1,0-15.5,7.2-15.5,16.2S297.1,73,306.2,73c3,0,5.7-0.8,7.9-2.2L306.2,64.2z"/>
	</g>
</g>
<g>
	<path class="st0" d="M96.8,16.6c-22.1-21.9-58-21.9-80.2,0c-22.1,21.9-22.1,57.5,0,79.5c16.3,16.1,40,20.4,60.2,12.8L40.4,72.8l0,0
		c-0.1-0.1-0.2-0.2-0.3-0.3c-9-8.9-9-23.4,0-32.3c8.9-8.9,23.4-8.9,32.4-0.2l37.1,36.5C117.4,56.4,113.1,32.8,96.8,16.6z"/>
	<g>
		<path class="st0" d="M95.4,120l25.4-25.2L79.3,53.8c0.8,6.7-1.4,13.6-6.6,18.7c-5.1,5.1-12,7.2-18.6,6.6L95.4,120z"/>
	</g>
</g>
</svg>
